<svg width="32" height="32" viewBox="0 0 32 32" fill="none" xmlns="http://www.w3.org/2000/svg">
<circle cx="16" cy="16" r="16" fill="white"/>
<path d="M7.43821 23V9.90909H9.41335V21.2997H15.3452V23H7.43821ZM17.5984 23V9.90909H22.2646C23.283 9.90909 24.1268 10.0945 24.7958 10.4652C25.4648 10.8359 25.9656 11.343 26.2979 11.9865C26.6303 12.6257 26.7965 13.3459 26.7965 14.147C26.7965 14.9524 26.6282 15.6768 26.2915 16.3203C25.9592 16.9595 25.4563 17.4666 24.783 17.8416C24.114 18.2124 23.2724 18.3977 22.2582 18.3977H19.0494V16.723H22.0792C22.7227 16.723 23.2447 16.6122 23.6452 16.3906C24.0458 16.1648 24.3398 15.858 24.5273 15.4702C24.7148 15.0824 24.8086 14.6413 24.8086 14.147C24.8086 13.6527 24.7148 13.2138 24.5273 12.8303C24.3398 12.4467 24.0437 12.1463 23.6388 11.929C23.2383 11.7116 22.7099 11.603 22.0536 11.603H19.5735V23H17.5984Z" fill="black"/>
</svg>
