<svg width="32" height="32" viewBox="0 0 32 32" fill="none" xmlns="http://www.w3.org/2000/svg">
<circle cx="16" cy="16" r="16" fill="white"/>
<g clip-path="url(#clip0_243_12)">
<path d="M15.9996 24.1314C15.702 24.141 15.4044 24.0354 15.1836 23.8338C14.9628 23.6322 14.8188 23.3538 14.79 23.0562L14.6556 21.9906C13.3596 21.6258 12.6012 20.6658 12.4092 19.1394L11.2476 10.1538C10.998 10.1154 10.7484 10.0962 10.4892 10.0962C10.1148 10.0962 9.74042 10.1442 9.37562 10.2402V23.8626H7.09082V12.909C7.09082 11.421 7.75322 10.3746 8.97242 9.93298V9.22258C8.97242 8.40658 9.47162 7.85938 10.2012 7.85938C10.9404 7.85938 11.4012 8.32017 11.5164 9.15538L11.6028 9.80818C12.9276 10.1826 13.7052 11.2482 13.9356 12.9858L15.0108 21.645C15.654 21.7698 16.3164 21.7698 16.9596 21.645L18.0348 12.9858C18.2556 11.2482 19.0428 10.1826 20.3676 9.80818L20.454 9.15538C20.5692 8.32017 21.0396 7.85938 21.7692 7.85938C22.4988 7.85938 22.998 8.40658 22.998 9.22258V9.93298C24.2076 10.365 24.8796 11.421 24.8796 12.909V23.8626H22.5948V10.2402C22.23 10.1442 21.8556 10.0962 21.4812 10.0962C21.2316 10.0962 20.9724 10.1058 20.7228 10.1538L19.5612 19.1394C19.3692 20.637 18.5916 21.6162 17.3148 21.9906L17.19 23.0562C17.1708 23.3634 17.0268 23.6418 16.806 23.8434C16.5756 24.045 16.278 24.1506 15.9804 24.1314H15.9996ZM15.078 22.0962L15.1932 23.0178C15.2028 23.2194 15.2988 23.4114 15.4428 23.5458C15.5964 23.6802 15.7884 23.7474 15.99 23.7378C16.086 23.7474 16.1916 23.7282 16.2876 23.6994C16.3836 23.6706 16.47 23.613 16.5468 23.5458C16.6236 23.4786 16.6812 23.4018 16.7292 23.3058C16.7676 23.2194 16.7964 23.1138 16.7964 23.0178L16.9116 22.0962C16.2972 22.1922 15.6828 22.1922 15.0684 22.0962H15.078ZM23.0268 23.469H24.4956V12.9186C24.4956 11.661 23.9868 10.7874 23.0268 10.3842V23.469ZM7.49402 23.469H8.97242V10.3842C8.01242 10.7874 7.50362 11.661 7.50362 12.9186L7.49402 23.469ZM11.67 10.269L12.8124 19.0914C12.9756 20.3682 13.5804 21.1938 14.598 21.549L13.542 13.053C13.35 11.5554 12.7356 10.6434 11.67 10.269ZM20.3292 10.269C19.2636 10.6434 18.6492 11.5554 18.4572 13.053L17.4012 21.5394C18.4284 21.1746 19.0236 20.3586 19.1868 19.0818L20.3292 10.269ZM9.38522 9.81778C9.75002 9.73138 10.1244 9.68338 10.4988 9.69298C10.7292 9.69298 10.9692 9.70258 11.1996 9.73138L11.1324 9.22258C11.046 8.59858 10.7388 8.28178 10.2204 8.28178C9.70202 8.28178 9.39482 8.64658 9.39482 9.24178V9.82738L9.38522 9.81778ZM21.5196 9.69298C21.894 9.69298 22.2684 9.73138 22.6332 9.81778V9.24178C22.6332 8.65618 22.3164 8.28178 21.8076 8.28178C21.2988 8.28178 20.982 8.59858 20.8956 9.22258L20.8284 9.73138C21.0588 9.70258 21.2892 9.68338 21.5292 9.69298L21.5553 9.69309L21.5196 9.69298Z" fill="#2D2D2D" stroke="black" stroke-width="0.7"/>
</g>
<defs>
<clipPath id="clip0_243_12">
<rect width="24" height="24" fill="white" transform="translate(4 4)"/>
</clipPath>
</defs>
</svg>
